<?xml version="1.0" encoding="utf-8"?>
<!-- Generator: Adobe Illustrator 22.0.1, SVG Export Plug-In . SVG Version: 6.00 Build 0)  -->
<svg version="1.1" id="Layer_1" xmlns="http://www.w3.org/2000/svg" xmlns:xlink="http://www.w3.org/1999/xlink" x="0px" y="0px"
	 viewBox="0 0 49.2 49.2" style="enable-background:new 0 0 49.2 49.2;" xml:space="preserve">
<style type="text/css">
	.st0{fill:#FFFFFF;}
</style>
<path class="st0" d="M24.6,0C11,0,0,11,0,24.6c0,13.6,11,24.6,24.6,24.6c13.6,0,24.6-11,24.6-24.6C49.2,11,38.2,0,24.6,0z
	 M33.2,38.2c-1.3,0.6-2.5,1.1-3.6,1.3c-1.1,0.3-2.2,0.4-3.5,0.4c-1.4,0-2.3-0.2-3.3-0.5c-1.1-0.4-2-0.9-2.8-1.5
	c-0.8-0.7-1.3-1.4-1.6-2.1C18.1,35,18,33.9,18,32.5V21.6h-4.2v-4.4c1.2-0.4,2.6-1,3.5-1.7c0.9-0.7,1.6-1.6,2.1-2.7
	c0.5-1,0.9-2.4,1.1-4h4.4v7.2H32v5.5h-7.2v8c0,1.8,0,2.8,0.2,3.3s0.7,1,1.2,1.3c0.7,0.4,1.5,0.6,2.4,0.6c1.6,0,3.1-0.5,4.7-1.5
	L33.2,38.2L33.2,38.2z"/>
<path d="M33.2,38.2c-1.3,0.6-2.5,1.1-3.6,1.3c-1.1,0.3-2.2,0.4-3.5,0.4c-1.4,0-2.3-0.2-3.3-0.5c-1.1-0.4-2-0.9-2.8-1.5
	c-0.8-0.7-1.3-1.4-1.6-2.1C18.1,35,18,33.9,18,32.5V21.6h-4.2v-4.4c1.2-0.4,2.6-1,3.5-1.7c0.9-0.7,1.6-1.6,2.1-2.7
	c0.5-1,0.9-2.4,1.1-4h4.4v7.2H32v5.5h-7.2v8c0,1.8,0,2.8,0.2,3.3s0.7,1,1.2,1.3c0.7,0.4,1.5,0.6,2.4,0.6c1.6,0,3.1-0.5,4.7-1.5
	L33.2,38.2L33.2,38.2z"/>
</svg>
